<svg width="22" height="21" viewBox="0 0 22 21" fill="none" xmlns="http://www.w3.org/2000/svg">
<g clip-path="url(#clip0_203_9)">
<path d="M0 1.4375C0 0.917969 0.408681 0.5 0.916667 0.5H2.65451C3.49479 0.5 4.23958 1 4.58715 1.75H20.2851C21.2896 1.75 22.0229 2.72656 21.7594 3.71875L20.1934 9.66797C19.8688 10.8945 18.7802 11.75 17.5389 11.75H6.51979L6.72604 12.8633C6.81007 13.3047 7.18819 13.625 7.62743 13.625H18.6389C19.1469 13.625 19.5556 14.043 19.5556 14.5625C19.5556 15.082 19.1469 15.5 18.6389 15.5H7.62743C6.3059 15.5 5.17153 14.5391 4.92708 13.2148L2.95625 2.62891C2.92951 2.48047 2.80347 2.375 2.65451 2.375H0.916667C0.408681 2.375 0 1.95703 0 1.4375ZM4.88889 18.625C4.88889 18.3788 4.93631 18.135 5.02844 17.9075C5.12058 17.68 5.25562 17.4733 5.42586 17.2992C5.5961 17.1251 5.79821 16.987 6.02064 16.8927C6.24307 16.7985 6.48147 16.75 6.72222 16.75C6.96298 16.75 7.20138 16.7985 7.42381 16.8927C7.64624 16.987 7.84834 17.1251 8.01858 17.2992C8.18883 17.4733 8.32387 17.68 8.416 17.9075C8.50814 18.135 8.55556 18.3788 8.55556 18.625C8.55556 18.8712 8.50814 19.115 8.416 19.3425C8.32387 19.57 8.18883 19.7767 8.01858 19.9508C7.84834 20.1249 7.64624 20.263 7.42381 20.3573C7.20138 20.4515 6.96298 20.5 6.72222 20.5C6.48147 20.5 6.24307 20.4515 6.02064 20.3573C5.79821 20.263 5.5961 20.1249 5.42586 19.9508C5.25562 19.7767 5.12058 19.57 5.02844 19.3425C4.93631 19.115 4.88889 18.8712 4.88889 18.625ZM17.7222 16.75C18.2085 16.75 18.6748 16.9475 19.0186 17.2992C19.3624 17.6508 19.5556 18.1277 19.5556 18.625C19.5556 19.1223 19.3624 19.5992 19.0186 19.9508C18.6748 20.3025 18.2085 20.5 17.7222 20.5C17.236 20.5 16.7697 20.3025 16.4259 19.9508C16.082 19.5992 15.8889 19.1223 15.8889 18.625C15.8889 18.1277 16.082 17.6508 16.4259 17.2992C16.7697 16.9475 17.236 16.75 17.7222 16.75ZM9.625 6.75C9.625 7.17969 9.96875 7.53125 10.3889 7.53125H12.0694V9.25C12.0694 9.67969 12.4132 10.0312 12.8333 10.0312C13.2535 10.0312 13.5972 9.67969 13.5972 9.25V7.53125H15.2778C15.6979 7.53125 16.0417 7.17969 16.0417 6.75C16.0417 6.32031 15.6979 5.96875 15.2778 5.96875H13.5972V4.25C13.5972 3.82031 13.2535 3.46875 12.8333 3.46875C12.4132 3.46875 12.0694 3.82031 12.0694 4.25V5.96875H10.3889C9.96875 5.96875 9.625 6.32031 9.625 6.75Z" fill="#198754"/>
</g>
<defs>
<clipPath id="clip0_203_9">
<rect width="22" height="20" fill="white" transform="translate(0 0.5)"/>
</clipPath>
</defs>
</svg>
