<svg width="22" height="20" viewBox="0 0 22 20" fill="none" xmlns="http://www.w3.org/2000/svg">
<g clip-path="url(#clip0_203_11)">
<path d="M0 0.9375C0 0.417969 0.408681 0 0.916667 0H2.65451C3.49479 0 4.23958 0.5 4.58715 1.25H20.2851C21.2896 1.25 22.0229 2.22656 21.7594 3.21875L20.1934 9.16797C19.8688 10.3945 18.7802 11.25 17.5389 11.25H6.51979L6.72604 12.3633C6.81007 12.8047 7.18819 13.125 7.62743 13.125H18.6389C19.1469 13.125 19.5556 13.543 19.5556 14.0625C19.5556 14.582 19.1469 15 18.6389 15H7.62743C6.3059 15 5.17153 14.0391 4.92708 12.7148L2.95625 2.12891C2.92951 1.98047 2.80347 1.875 2.65451 1.875H0.916667C0.408681 1.875 0 1.45703 0 0.9375ZM4.88889 18.125C4.88889 17.8788 4.93631 17.635 5.02844 17.4075C5.12058 17.18 5.25562 16.9733 5.42586 16.7992C5.5961 16.6251 5.79821 16.487 6.02064 16.3927C6.24307 16.2985 6.48147 16.25 6.72222 16.25C6.96298 16.25 7.20138 16.2985 7.42381 16.3927C7.64624 16.487 7.84834 16.6251 8.01858 16.7992C8.18883 16.9733 8.32387 17.18 8.416 17.4075C8.50814 17.635 8.55556 17.8788 8.55556 18.125C8.55556 18.3712 8.50814 18.615 8.416 18.8425C8.32387 19.07 8.18883 19.2767 8.01858 19.4508C7.84834 19.6249 7.64624 19.763 7.42381 19.8573C7.20138 19.9515 6.96298 20 6.72222 20C6.48147 20 6.24307 19.9515 6.02064 19.8573C5.79821 19.763 5.5961 19.6249 5.42586 19.4508C5.25562 19.2767 5.12058 19.07 5.02844 18.8425C4.93631 18.615 4.88889 18.3712 4.88889 18.125ZM17.7222 16.25C18.2085 16.25 18.6748 16.4475 19.0186 16.7992C19.3624 17.1508 19.5556 17.6277 19.5556 18.125C19.5556 18.6223 19.3624 19.0992 19.0186 19.4508C18.6748 19.8025 18.2085 20 17.7222 20C17.236 20 16.7697 19.8025 16.4259 19.4508C16.082 19.0992 15.8889 18.6223 15.8889 18.125C15.8889 17.6277 16.082 17.1508 16.4259 16.7992C16.7697 16.4475 17.236 16.25 17.7222 16.25ZM9.625 6.25C9.625 6.67969 9.96875 7.03125 10.3889 7.03125H12.0694V8.75C12.0694 9.17969 12.4132 9.53125 12.8333 9.53125C13.2535 9.53125 13.5972 9.17969 13.5972 8.75V7.03125H15.2778C15.6979 7.03125 16.0417 6.67969 16.0417 6.25C16.0417 5.82031 15.6979 5.46875 15.2778 5.46875H13.5972V3.75C13.5972 3.32031 13.2535 2.96875 12.8333 2.96875C12.4132 2.96875 12.0694 3.32031 12.0694 3.75V5.46875H10.3889C9.96875 5.46875 9.625 5.82031 9.625 6.25Z" fill="#FFC107"/>
</g>
<defs>
<clipPath id="clip0_203_11">
<rect width="22" height="20" fill="white"/>
</clipPath>
</defs>
</svg>
